<?xml version="1.0" encoding="UTF-8" standalone="no"?>
<!DOCTYPE svg PUBLIC "-//W3C//DTD SVG 1.1//EN"
 "http://www.w3.org/Graphics/SVG/1.1/DTD/svg11.dtd">
<!-- Generated by graphviz version 2.47.0 (20210316.0004)
 -->
<!-- Title: dependencies Pages: 1 -->
<svg width="719pt" height="284pt"
 viewBox="0.00 0.00 719.00 284.00" xmlns="http://www.w3.org/2000/svg" xmlns:xlink="http://www.w3.org/1999/xlink">
<g id="graph0" class="graph" transform="scale(1 1) rotate(0) translate(4 280)">
<title>dependencies</title>
<polygon fill="white" stroke="transparent" points="-4,4 -4,-280 715,-280 715,4 -4,4"/>
<text text-anchor="start" x="334.51" y="-42.4" font-family="Times-12" font-weight="bold" font-size="14.00">Legend</text>
<polygon fill="#ffffb3" stroke="transparent" points="121.5,-10 121.5,-30 141.5,-30 141.5,-10 121.5,-10"/>
<text text-anchor="start" x="145.13" y="-15.4" font-family="Times-12" font-size="14.00"> &#160;Declarations</text>
<polygon fill="#8dd3c7" stroke="transparent" points="234.5,-10 234.5,-30 254.5,-30 254.5,-10 234.5,-10"/>
<text text-anchor="start" x="258.23" y="-15.4" font-family="Times-12" font-size="14.00"> &#160;Module</text>
<polygon fill="#80b1d3" stroke="transparent" points="320.5,-10 320.5,-30 340.5,-30 340.5,-10 320.5,-10"/>
<text text-anchor="start" x="344.28" y="-15.4" font-family="Times-12" font-size="14.00"> &#160;Bootstrap</text>
<polygon fill="#fdb462" stroke="transparent" points="417.5,-10 417.5,-30 437.5,-30 437.5,-10 417.5,-10"/>
<text text-anchor="start" x="441.17" y="-15.4" font-family="Times-12" font-size="14.00"> &#160;Providers</text>
<polygon fill="#fb8072" stroke="transparent" points="513.5,-10 513.5,-30 533.5,-30 533.5,-10 513.5,-10"/>
<text text-anchor="start" x="537.23" y="-15.4" font-family="Times-12" font-size="14.00"> &#160;Exports</text>
<g id="clust1" class="cluster">
<title>cluster_AppModule</title>
<polygon fill="none" stroke="black" stroke-dasharray="1,5" points="8,-70 8,-268 703,-268 703,-70 8,-70"/>
</g>
<g id="clust5" class="cluster">
<title>cluster_AppModule_imports</title>
<polygon fill="none" stroke="black" points="278,-78 278,-130 695,-130 695,-78 278,-78"/>
</g>
<g id="clust7" class="cluster">
<title>cluster_AppModule_bootstrap</title>
<polygon fill="none" stroke="black" points="297,-208 297,-260 421,-260 421,-208 297,-208"/>
</g>
<g id="clust2" class="cluster">
<title>cluster_AppModule_declarations</title>
<polygon fill="none" stroke="black" points="16,-78 16,-130 270,-130 270,-78 16,-78"/>
</g>
<!-- AppComponent -->
<g id="node1" class="node">
<title>AppComponent</title>
<polygon fill="#ffffb3" stroke="black" points="261.94,-122 156.06,-122 156.06,-86 261.94,-86 261.94,-122"/>
<text text-anchor="middle" x="209" y="-99.8" font-family="Times,serif" font-size="14.00">AppComponent</text>
</g>
<!-- AppModule -->
<g id="node3" class="node">
<title>AppModule</title>
<polygon fill="#8dd3c7" stroke="black" points="400.66,-187 397.66,-191 376.66,-191 373.66,-187 317.34,-187 317.34,-151 400.66,-151 400.66,-187"/>
<text text-anchor="middle" x="359" y="-164.8" font-family="Times,serif" font-size="14.00">AppModule</text>
</g>
<!-- AppComponent&#45;&gt;AppModule -->
<g id="edge1" class="edge">
<title>AppComponent&#45;&gt;AppModule</title>
<path fill="none" stroke="black" d="M209,-122.02C209,-139.37 209,-163 209,-163 209,-163 307.22,-163 307.22,-163"/>
<polygon fill="black" stroke="black" points="307.22,-166.5 317.22,-163 307.22,-159.5 307.22,-166.5"/>
</g>
<!-- OrderComponent -->
<g id="node2" class="node">
<title>OrderComponent</title>
<polygon fill="#ffffb3" stroke="black" points="137.97,-122 24.03,-122 24.03,-86 137.97,-86 137.97,-122"/>
<text text-anchor="middle" x="81" y="-99.8" font-family="Times,serif" font-size="14.00">OrderComponent</text>
</g>
<!-- OrderComponent&#45;&gt;AppModule -->
<g id="edge2" class="edge">
<title>OrderComponent&#45;&gt;AppModule</title>
<path fill="none" stroke="black" d="M81,-122.28C81,-143.32 81,-175 81,-175 81,-175 307.08,-175 307.08,-175"/>
<polygon fill="black" stroke="black" points="307.08,-178.5 317.08,-175 307.08,-171.5 307.08,-178.5"/>
</g>
<!-- AppComponent  -->
<g id="node7" class="node">
<title>AppComponent </title>
<polygon fill="#80b1d3" stroke="black" points="413.44,-252 304.56,-252 304.56,-216 413.44,-216 413.44,-252"/>
<text text-anchor="middle" x="359" y="-229.8" font-family="Times,serif" font-size="14.00">AppComponent </text>
</g>
<!-- AppModule&#45;&gt;AppComponent  -->
<g id="edge6" class="edge">
<title>AppModule&#45;&gt;AppComponent </title>
<path fill="none" stroke="black" stroke-dasharray="1,5" d="M359,-187.11C359,-187.11 359,-205.99 359,-205.99"/>
<polygon fill="black" stroke="black" points="355.5,-205.99 359,-215.99 362.5,-205.99 355.5,-205.99"/>
</g>
<!-- AppRoutingModule -->
<g id="node4" class="node">
<title>AppRoutingModule</title>
<polygon fill="#8dd3c7" stroke="black" points="687.27,-122 684.27,-126 663.27,-126 660.27,-122 558.73,-122 558.73,-86 687.27,-86 687.27,-122"/>
<text text-anchor="middle" x="623" y="-99.8" font-family="Times,serif" font-size="14.00">AppRoutingModule</text>
</g>
<!-- AppRoutingModule&#45;&gt;AppModule -->
<g id="edge3" class="edge">
<title>AppRoutingModule&#45;&gt;AppModule</title>
<path fill="none" stroke="black" d="M623,-122.28C623,-143.32 623,-175 623,-175 623,-175 410.83,-175 410.83,-175"/>
<polygon fill="black" stroke="black" points="410.83,-171.5 400.83,-175 410.83,-178.5 410.83,-171.5"/>
</g>
<!-- SaladModule -->
<g id="node5" class="node">
<title>SaladModule</title>
<polygon fill="#8dd3c7" stroke="black" points="540.15,-122 537.15,-126 516.15,-126 513.15,-122 449.85,-122 449.85,-86 540.15,-86 540.15,-122"/>
<text text-anchor="middle" x="495" y="-99.8" font-family="Times,serif" font-size="14.00">SaladModule</text>
</g>
<!-- SaladModule&#45;&gt;AppModule -->
<g id="edge4" class="edge">
<title>SaladModule&#45;&gt;AppModule</title>
<path fill="none" stroke="black" d="M495,-122.02C495,-139.37 495,-163 495,-163 495,-163 410.91,-163 410.91,-163"/>
<polygon fill="black" stroke="black" points="410.91,-159.5 400.91,-163 410.91,-166.5 410.91,-159.5"/>
</g>
<!-- SharedMaterialModule -->
<g id="node6" class="node">
<title>SharedMaterialModule</title>
<polygon fill="#8dd3c7" stroke="black" points="431.84,-122 428.84,-126 407.84,-126 404.84,-122 286.16,-122 286.16,-86 431.84,-86 431.84,-122"/>
<text text-anchor="middle" x="359" y="-99.8" font-family="Times,serif" font-size="14.00">SharedMaterialModule</text>
</g>
<!-- SharedMaterialModule&#45;&gt;AppModule -->
<g id="edge5" class="edge">
<title>SharedMaterialModule&#45;&gt;AppModule</title>
<path fill="none" stroke="black" d="M359,-122.11C359,-122.11 359,-140.99 359,-140.99"/>
<polygon fill="black" stroke="black" points="355.5,-140.99 359,-150.99 362.5,-140.99 355.5,-140.99"/>
</g>
</g>
</svg>
