<?xml version="1.0" encoding="UTF-8" standalone="no"?>
<!DOCTYPE svg PUBLIC "-//W3C//DTD SVG 1.1//EN"
 "http://www.w3.org/Graphics/SVG/1.1/DTD/svg11.dtd">
<!-- Generated by graphviz version 2.47.0 (20210316.0004)
 -->
<!-- Title: dependencies Pages: 1 -->
<svg width="1412pt" height="352pt"
 viewBox="0.00 0.00 1412.00 352.00" xmlns="http://www.w3.org/2000/svg" xmlns:xlink="http://www.w3.org/1999/xlink">
<g id="graph0" class="graph" transform="scale(1 1) rotate(0) translate(4 348)">
<title>dependencies</title>
<polygon fill="white" stroke="transparent" points="-4,4 -4,-348 1408,-348 1408,4 -4,4"/>
<text text-anchor="start" x="681.01" y="-42.4" font-family="Times-12" font-weight="bold" font-size="14.00">Legend</text>
<polygon fill="#ffffb3" stroke="transparent" points="468,-10 468,-30 488,-30 488,-10 468,-10"/>
<text text-anchor="start" x="491.63" y="-15.4" font-family="Times-12" font-size="14.00"> &#160;Declarations</text>
<polygon fill="#8dd3c7" stroke="transparent" points="581,-10 581,-30 601,-30 601,-10 581,-10"/>
<text text-anchor="start" x="604.73" y="-15.4" font-family="Times-12" font-size="14.00"> &#160;Module</text>
<polygon fill="#80b1d3" stroke="transparent" points="667,-10 667,-30 687,-30 687,-10 667,-10"/>
<text text-anchor="start" x="690.78" y="-15.4" font-family="Times-12" font-size="14.00"> &#160;Bootstrap</text>
<polygon fill="#fdb462" stroke="transparent" points="764,-10 764,-30 784,-30 784,-10 764,-10"/>
<text text-anchor="start" x="787.67" y="-15.4" font-family="Times-12" font-size="14.00"> &#160;Providers</text>
<polygon fill="#fb8072" stroke="transparent" points="860,-10 860,-30 880,-30 880,-10 860,-10"/>
<text text-anchor="start" x="883.73" y="-15.4" font-family="Times-12" font-size="14.00"> &#160;Exports</text>
<g id="clust1" class="cluster">
<title>cluster_AppModule</title>
<polygon fill="none" stroke="black" stroke-dasharray="1,5" points="8,-70 8,-336 594,-336 594,-70 8,-70"/>
</g>
<g id="clust2" class="cluster">
<title>cluster_AppModule_declarations</title>
<polygon fill="none" stroke="black" points="332,-146 332,-198 586,-198 586,-146 332,-146"/>
</g>
<g id="clust5" class="cluster">
<title>cluster_AppModule_imports</title>
<polygon fill="none" stroke="black" points="16,-78 16,-198 324,-198 324,-78 16,-78"/>
</g>
<g id="clust7" class="cluster">
<title>cluster_AppModule_bootstrap</title>
<polygon fill="none" stroke="black" points="209,-276 209,-328 333,-328 333,-276 209,-276"/>
</g>
<g id="clust15" class="cluster">
<title>cluster_KitchenModule</title>
<polygon fill="none" stroke="black" stroke-dasharray="1,5" points="1066,-70 1066,-198 1396,-198 1396,-70 1066,-70"/>
</g>
<g id="clust16" class="cluster">
<title>cluster_KitchenModule_declarations</title>
<polygon fill="none" stroke="black" points="1246,-78 1246,-130 1388,-130 1388,-78 1246,-78"/>
</g>
<g id="clust18" class="cluster">
<title>cluster_KitchenModule_imports</title>
<polygon fill="none" stroke="black" points="1074,-78 1074,-130 1238,-130 1238,-78 1074,-78"/>
</g>
<g id="clust28" class="cluster">
<title>cluster_SaladModule</title>
<polygon fill="none" stroke="black" stroke-dasharray="1,5" points="602,-70 602,-138 1058,-138 1058,-70 602,-70"/>
</g>
<g id="clust29" class="cluster">
<title>cluster_SaladModule_declarations</title>
<polygon fill="none" stroke="black" points="770,-78 770,-130 1050,-130 1050,-78 770,-78"/>
</g>
<g id="clust32" class="cluster">
<title>cluster_SaladModule_imports</title>
<polygon fill="none" stroke="black" points="610,-78 610,-130 762,-130 762,-78 610,-78"/>
</g>
<!-- AppComponent -->
<g id="node1" class="node">
<title>AppComponent</title>
<polygon fill="#ffffb3" stroke="black" points="577.94,-190 472.06,-190 472.06,-154 577.94,-154 577.94,-190"/>
<text text-anchor="middle" x="525" y="-167.8" font-family="Times,serif" font-size="14.00">AppComponent</text>
</g>
<!-- AppModule -->
<g id="node3" class="node">
<title>AppModule</title>
<polygon fill="#8dd3c7" stroke="black" points="312.66,-255 309.66,-259 288.66,-259 285.66,-255 229.34,-255 229.34,-219 312.66,-219 312.66,-255"/>
<text text-anchor="middle" x="271" y="-232.8" font-family="Times,serif" font-size="14.00">AppModule</text>
</g>
<!-- AppComponent&#45;&gt;AppModule -->
<g id="edge1" class="edge">
<title>AppComponent&#45;&gt;AppModule</title>
<path fill="none" stroke="black" d="M525,-190.28C525,-211.32 525,-243 525,-243 525,-243 322.66,-243 322.66,-243"/>
<polygon fill="black" stroke="black" points="322.66,-239.5 312.66,-243 322.66,-246.5 322.66,-239.5"/>
</g>
<!-- OrderComponent -->
<g id="node2" class="node">
<title>OrderComponent</title>
<polygon fill="#ffffb3" stroke="black" points="453.97,-190 340.03,-190 340.03,-154 453.97,-154 453.97,-190"/>
<text text-anchor="middle" x="397" y="-167.8" font-family="Times,serif" font-size="14.00">OrderComponent</text>
</g>
<!-- OrderComponent&#45;&gt;AppModule -->
<g id="edge2" class="edge">
<title>OrderComponent&#45;&gt;AppModule</title>
<path fill="none" stroke="black" d="M397,-190.02C397,-207.37 397,-231 397,-231 397,-231 322.96,-231 322.96,-231"/>
<polygon fill="black" stroke="black" points="322.96,-227.5 312.96,-231 322.96,-234.5 322.96,-227.5"/>
</g>
<!-- AppComponent  -->
<g id="node7" class="node">
<title>AppComponent </title>
<polygon fill="#80b1d3" stroke="black" points="325.44,-320 216.56,-320 216.56,-284 325.44,-284 325.44,-320"/>
<text text-anchor="middle" x="271" y="-297.8" font-family="Times,serif" font-size="14.00">AppComponent </text>
</g>
<!-- AppModule&#45;&gt;AppComponent  -->
<g id="edge6" class="edge">
<title>AppModule&#45;&gt;AppComponent </title>
<path fill="none" stroke="black" stroke-dasharray="1,5" d="M271,-255.11C271,-255.11 271,-273.99 271,-273.99"/>
<polygon fill="black" stroke="black" points="267.5,-273.99 271,-283.99 274.5,-273.99 267.5,-273.99"/>
</g>
<!-- AppRoutingModule -->
<g id="node4" class="node">
<title>AppRoutingModule</title>
<polygon fill="#8dd3c7" stroke="black" points="152.27,-122 149.27,-126 128.27,-126 125.27,-122 23.73,-122 23.73,-86 152.27,-86 152.27,-122"/>
<text text-anchor="middle" x="88" y="-99.8" font-family="Times,serif" font-size="14.00">AppRoutingModule</text>
</g>
<!-- AppRoutingModule&#45;&gt;AppModule -->
<g id="edge3" class="edge">
<title>AppRoutingModule&#45;&gt;AppModule</title>
<path fill="none" stroke="black" d="M88,-122.17C88,-159.85 88,-243 88,-243 88,-243 219.02,-243 219.02,-243"/>
<polygon fill="black" stroke="black" points="219.02,-246.5 229.02,-243 219.02,-239.5 219.02,-246.5"/>
</g>
<!-- SaladModule -->
<g id="node5" class="node">
<title>SaladModule</title>
<polygon fill="#8dd3c7" stroke="black" points="316.15,-190 313.15,-194 292.15,-194 289.15,-190 225.85,-190 225.85,-154 316.15,-154 316.15,-190"/>
<text text-anchor="middle" x="271" y="-167.8" font-family="Times,serif" font-size="14.00">SaladModule</text>
</g>
<!-- SaladModule&#45;&gt;AppModule -->
<g id="edge4" class="edge">
<title>SaladModule&#45;&gt;AppModule</title>
<path fill="none" stroke="black" d="M271,-190.11C271,-190.11 271,-208.99 271,-208.99"/>
<polygon fill="black" stroke="black" points="267.5,-208.99 271,-218.99 274.5,-208.99 267.5,-208.99"/>
</g>
<!-- SharedMaterialModule -->
<g id="node6" class="node">
<title>SharedMaterialModule</title>
<polygon fill="#8dd3c7" stroke="black" points="315.84,-122 312.84,-126 291.84,-126 288.84,-122 170.16,-122 170.16,-86 315.84,-86 315.84,-122"/>
<text text-anchor="middle" x="243" y="-99.8" font-family="Times,serif" font-size="14.00">SharedMaterialModule</text>
</g>
<!-- SharedMaterialModule&#45;&gt;AppModule -->
<g id="edge5" class="edge">
<title>SharedMaterialModule&#45;&gt;AppModule</title>
<path fill="none" stroke="black" d="M221.1,-122.2C221.1,-157.31 221.1,-231 221.1,-231 221.1,-231 221.93,-231 221.93,-231"/>
<polygon fill="black" stroke="black" points="219.34,-234.5 229.34,-231 219.34,-227.5 219.34,-234.5"/>
</g>
<!-- SharedMaterialModule&#45;&gt;SaladModule -->
<g id="edge12" class="edge">
<title>SharedMaterialModule&#45;&gt;SaladModule</title>
<path fill="none" stroke="black" d="M248.24,-122.22C248.24,-122.22 248.24,-143.73 248.24,-143.73"/>
<polygon fill="black" stroke="black" points="244.74,-143.73 248.24,-153.73 251.74,-143.73 244.74,-143.73"/>
</g>
<!-- KitchenComponent -->
<g id="node8" class="node">
<title>KitchenComponent</title>
<polygon fill="#ffffb3" stroke="black" points="1379.65,-122 1254.35,-122 1254.35,-86 1379.65,-86 1379.65,-122"/>
<text text-anchor="middle" x="1317" y="-99.8" font-family="Times,serif" font-size="14.00">KitchenComponent</text>
</g>
<!-- KitchenModule -->
<g id="node9" class="node">
<title>KitchenModule</title>
<polygon fill="#8dd3c7" stroke="black" points="1287.87,-190 1284.87,-194 1263.87,-194 1260.87,-190 1184.13,-190 1184.13,-154 1287.87,-154 1287.87,-190"/>
<text text-anchor="middle" x="1236" y="-167.8" font-family="Times,serif" font-size="14.00">KitchenModule</text>
</g>
<!-- KitchenComponent&#45;&gt;KitchenModule -->
<g id="edge7" class="edge">
<title>KitchenComponent&#45;&gt;KitchenModule</title>
<path fill="none" stroke="black" d="M1271.05,-122.22C1271.05,-122.22 1271.05,-143.73 1271.05,-143.73"/>
<polygon fill="black" stroke="black" points="1267.55,-143.73 1271.05,-153.73 1274.55,-143.73 1267.55,-143.73"/>
</g>
<!-- KitchenRoutingModule -->
<g id="node10" class="node">
<title>KitchenRoutingModule</title>
<polygon fill="#8dd3c7" stroke="black" points="1230.48,-122 1227.48,-126 1206.48,-126 1203.48,-122 1081.52,-122 1081.52,-86 1230.48,-86 1230.48,-122"/>
<text text-anchor="middle" x="1156" y="-99.8" font-family="Times,serif" font-size="14.00">KitchenRoutingModule</text>
</g>
<!-- KitchenRoutingModule&#45;&gt;KitchenModule -->
<g id="edge8" class="edge">
<title>KitchenRoutingModule&#45;&gt;KitchenModule</title>
<path fill="none" stroke="black" d="M1207.28,-122.22C1207.28,-122.22 1207.28,-143.73 1207.28,-143.73"/>
<polygon fill="black" stroke="black" points="1203.78,-143.73 1207.28,-153.73 1210.78,-143.73 1203.78,-143.73"/>
</g>
<!-- SaladComponent -->
<g id="node11" class="node">
<title>SaladComponent</title>
<polygon fill="#ffffb3" stroke="black" points="890.44,-122 777.56,-122 777.56,-86 890.44,-86 890.44,-122"/>
<text text-anchor="middle" x="834" y="-99.8" font-family="Times,serif" font-size="14.00">SaladComponent</text>
</g>
<!-- SaladComponent&#45;&gt;SaladModule -->
<g id="edge9" class="edge">
<title>SaladComponent&#45;&gt;SaladModule</title>
<path fill="none" stroke="black" d="M834,-122.2C834,-128.03 834,-133 834,-133 834,-133 270.8,-133 270.8,-133 270.8,-133 270.8,-143.87 270.8,-143.87"/>
<polygon fill="black" stroke="black" points="267.3,-143.87 270.8,-153.87 274.3,-143.87 267.3,-143.87"/>
</g>
<!-- ToppingsComponent -->
<g id="node12" class="node">
<title>ToppingsComponent</title>
<polygon fill="#ffffb3" stroke="black" points="1042.22,-122 907.78,-122 907.78,-86 1042.22,-86 1042.22,-122"/>
<text text-anchor="middle" x="975" y="-99.8" font-family="Times,serif" font-size="14.00">ToppingsComponent</text>
</g>
<!-- ToppingsComponent&#45;&gt;SaladModule -->
<g id="edge10" class="edge">
<title>ToppingsComponent&#45;&gt;SaladModule</title>
<path fill="none" stroke="black" d="M975,-122.13C975,-132.71 975,-144 975,-144 975,-144 293.36,-144 293.36,-144 293.36,-144 293.36,-144.98 293.36,-144.98"/>
<polygon fill="black" stroke="black" points="289.86,-143.79 293.36,-153.79 296.86,-143.79 289.86,-143.79"/>
</g>
<!-- SaladRoutingModule -->
<g id="node13" class="node">
<title>SaladRoutingModule</title>
<polygon fill="#8dd3c7" stroke="black" points="753.77,-122 750.77,-126 729.77,-126 726.77,-122 618.23,-122 618.23,-86 753.77,-86 753.77,-122"/>
<text text-anchor="middle" x="686" y="-99.8" font-family="Times,serif" font-size="14.00">SaladRoutingModule</text>
</g>
<!-- SaladRoutingModule&#45;&gt;SaladModule -->
<g id="edge11" class="edge">
<title>SaladRoutingModule&#45;&gt;SaladModule</title>
<path fill="none" stroke="black" d="M618.18,-104C512.6,-104 320.9,-104 320.9,-104 320.9,-104 320.9,-172 320.9,-172 320.9,-172 320.44,-172 320.44,-172"/>
<polygon fill="black" stroke="black" points="326.29,-168.5 316.29,-172 326.29,-175.5 326.29,-168.5"/>
</g>
</g>
</svg>
